<?xml version="1.0" encoding="utf-8"?>
<!-- Generator: Adobe Illustrator 23.0.1, SVG Export Plug-In . SVG Version: 6.00 Build 0)  -->
<svg version="1.1" id="Layer_1" xmlns="http://www.w3.org/2000/svg" xmlns:xlink="http://www.w3.org/1999/xlink" x="0px" y="0px"
	 viewBox="0 0 281.4 93.5" style="enable-background:new 0 0 281.4 93.5;" xml:space="preserve">
<style type="text/css">
	.st0{fill:#DFDD00;}
	.st1{fill:#99ABBE;}
	.st2{fill:#002E5D;}
	.st3{fill:#FFFFFF;}
</style>
<path class="st0" d="M281.4,93.5H107.7V0h151.6c12.2,0,22.1,9.8,22.1,22c0,0,0,8.2,0,7.2V93.5z"/>
<g>
	<path class="st1" d="M143.6,51.7h3.1V71c-0.6,0.4-1.2,0.6-1.8,0.6c-1.3,0-2.1-0.8-2.6-1.5l-9.6-13.6v14.9h-3.1V52.1
		c0.6-0.4,1.2-0.6,1.8-0.6c1.3,0,2.1,0.8,2.7,1.5l9.6,13.6L143.6,51.7L143.6,51.7z M160.9,60h-4.1c-1.6,0-2.8-1.1-2.8-2.7
		c0-1.6,1.2-2.8,2.8-2.8c1.7,0,4.6,0.3,6.2,0.3c1.6,0,2.9-0.5,3.4-2.4c-2-0.6-5.5-1.1-9-1.1c-3.9,0-6.8,2.4-6.8,6
		c0,3.4,2.8,5.8,6.4,5.8h4.1c1.6,0,2.8,1.1,2.8,2.8c0,1.5-1.2,2.6-2.8,2.6c-1.7,0-5-0.3-6.6-0.3s-2.9,0.5-3.4,2.3
		c2,0.6,5.9,1.1,9.4,1.1c3.9,0,6.8-2.3,6.8-5.9C167.2,62.4,164.4,60,160.9,60z M187.3,68.9c0,1.6,1.3,2.8,2.8,2.8h0.5v-20h-3.4
		L187.3,68.9L187.3,68.9z M122.2,68.9c0,1.6,1.3,2.8,2.8,2.8h0.5v-20h-3.4L122.2,68.9L122.2,68.9z M266.9,71.1v-2.8h-2.8h-0.2h-8.3
		V63h8.5v-3.1h-8.5v-5.2h8.4c1.6,0,2.8-1.3,2.8-2.8v-0.2h-14.6v19.7h11.7h3.1l0,0L266.9,71.1C266.9,71.2,266.9,71.1,266.9,71.1z
		 M193.1,51.7v0.2v2.8h2.8l0,0h4v16.7h3.4V54.7h4c1.6,0,2.8-1.3,2.8-2.8v-0.2h-14H193.1z M232.3,51.7v0.2v2.8h2.8l0,0h4v16.7h3.4
		V54.7h4c1.6,0,2.8-1.3,2.8-2.8v-0.2h-14H232.3z M167.7,51.7v0.2v2.8h2.8l0,0h4v16.7h3.4V54.7h4c1.6,0,2.8-1.3,2.8-2.8v-0.2h-14
		H167.7z M226.7,54.1v1.5l0,0v7.5c0,3.1-2.3,5.6-5.3,5.6s-5.4-2.5-5.4-5.6V51.7h-3.4v11.4c0,4.8,3.9,8.7,8.7,8.7s8.7-3.9,8.7-8.7
		v-6.5v-1v-4.3h-0.6C228,51.3,226.7,52.6,226.7,54.1z"/>
	<path class="st2" d="M154.7,22.9c6.3,0,11.5,5.1,11.5,11.5c0,6.3-5.1,11.5-11.5,11.5c-6.3,0-11.5-5.1-11.5-11.5
		C143.3,28.1,148.4,22.9,154.7,22.9z M154.8,42.4c4.3,0,7.6-3.6,7.6-8s-3.3-8-7.6-8s-7.6,3.6-7.6,8
		C147.1,38.8,150.5,42.4,154.8,42.4z M217.9,45.8h-0.6c-1.8,0-3.2-1.4-3.2-3.2V36h-12v9.5h-3.8V22.9h0.6c1.8,0,3.2,1.4,3.2,3.2v6.4
		h12v-9.2h3.8V45.8z M227.4,45.8h-0.6c-1.8,0-3.2-1.4-3.2-3.2V23.3h3.8V45.8z M236.9,42h8.3c1.8,0,3.2,1.4,3.2,3.2v0.3h-15.3V23.3
		h3.8V42z M255.4,42h8.3c1.8,0,3.2,1.4,3.2,3.2v0.3h-15.3V23.3h3.8V42z M136.4,34c1.4-0.5,3.1-2,3.1-4.6c0-3.7-2.7-6.4-7.1-6.4
		c0,0-7.1,0-10.1,0v22.7c3.1,0,10.5,0,10.6,0c4.7,0,7.4-2.5,7.4-6.5C140.3,36.5,138.1,34.5,136.4,34z M126,26.3c1.4,0,5.6,0,5.6,0
		c2.8,0,3.9,1.3,3.9,3.2c0,1.9-1.1,3.2-3.9,3.2H126V26.3z M132.4,42.4c-0.1,0-4.2,0-6.3,0v-6.5h6.3c2.8,0,4,1.3,4,3.3
		C136.4,41.1,135.2,42.4,132.4,42.4z M183.7,37.1l-0.1-0.1c-0.2-0.2-0.3-0.3-0.5-0.4c-0.5-0.3-1.1-0.5-1.8-0.5
		c-0.9,0-1.8,0.5-2.5,1.1l5.7,7c1.1,1.3,1.8,1.6,2.9,1.6c0.9,0,1.9-0.4,2.6-1.1L183.7,37.1z M177.3,36.4c-0.3-0.8-0.8-1.5-1.5-1.9
		l0,0l-8.4,10.2c0.7,0.6,1.5,1.1,2.4,1.1c1.1,0,1.8-0.4,2.8-1.6l4.1-4.7l0,0l0,0c0.2-0.3,0.5-0.6,0.6-0.9c0.2-0.5,0.2-1.1,0.1-1.8
		C177.3,36.5,177.3,36.4,177.3,36.4z M173.1,24.7c-1.1-1.3-1.8-1.6-2.9-1.6c-0.9,0-1.9,0.4-2.6,1.1l5.8,7.2l0,0l0,0
		c0.9,1,1.6,1.3,2.6,1.3c0.9,0,1.9-0.4,2.6-1.1L173.1,24.7z M181.5,34.4l8.2-10.2c-0.7-0.7-1.5-1.1-2.4-1.1c-1.1,0-1.8,0.4-2.8,1.6
		l-3.9,4.7l0,0c-0.1,0.1-0.1,0.1-0.2,0.2c-0.1,0.2-0.2,0.4-0.3,0.5c-0.2,0.6-0.3,1.2-0.2,1.9C180.1,33,180.7,33.8,181.5,34.4z"/>
</g>
<path class="st2" d="M0.1,0v71.4c0,12.2,9.9,22.1,22.1,22.1h82.1V0H0.1z"/>
<path class="st3" d="M47.9,31.3c0.1,0.1,0.2,0.1,0.3,0.2c1.3,0.6,3.2,0.6,4.2-0.4c1-0.9,2.4-1.6,3.6-2.2
	c5.4-10.4,9.5-13.1,11.9-14.4c1-0.5,2.2-0.9,3.2-0.9c0.2,0,0.3-0.2,0.2-0.3c-0.7-1.7,2.3-3.9,2.7-3.8c0.3,0.1-0.2,1.7,0.2,2.3
	c0.6,0.9,1.8,1.2,2.8,0.9c0.5-0.3,0.9-0.6,1.4-1.1c0.3-0.2,0.6-2,0.9-2.1c0.3-0.1,0.7,1.1,0.8,1.3c0.3,1,0.3,2.2-0.4,3
	c-0.3,0.3-0.4,0.7-0.6,1.1c-0.3,0.9,0.3,1.4,0.7,2.2c0.4,0.6,1,1,1.3,1.6c0.3,0.5,0.2,1,0,1.6c-0.1,0.2-0.2,0.4-0.2,0.6
	s0.2,0.5,0.3,0.8c0.5,1.6,0.6,3.2,1.6,4.6c0.3,0.4,0.6,0.7,0.8,1.1c0.2,0.5,0.4,1.2,0.3,1.8c-0.2,0.7-0.7,1.4-0.9,2.1
	c-0.3,0.9-1,1.6-1.9,1.7c-0.8,0.1-1.4-0.4-1.8-1c-0.5-0.6-0.8-1-1.6-1.2c-0.6-0.2-1.2-0.4-1.8-0.7l-0.4-0.2c0.1,0,0.1,0.1,0.2,0.2
	c0,0.1,0.1,0.3,0.1,0.4c0,0.8-0.2,2-0.3,2.3c-0.1,1.9-0.3,4.2,0.2,6.1c0.4,1.6,1.6,2.9,2.2,4.5c0.8,2,0.3,4.1-0.1,6.1l-0.2,0.9
	c0,0,1.1,0.7,1.2,0.8c0.4,0.3,0.9,0.6,1.3,0.9c0.4,0.3,0.8,0.7,1.2,1c0.9,0.7,1.9,1.2,2.8,1.9c1,0.8,2.2,1.2,3.3,1.9
	c2.5,1.7,3.3,4.6,4.4,7.2c0.3,0.8,0.7,1.5,1.1,2.2c0.3,0.6,0.9,1.1,1.1,1.8c0.3,0.8-0.6,1.4-0.5,2.2c0,0.6,0.2,0.8,0.3,1.1
	c0.5,1.2,0.6,2.1,0.7,3.5c0,0.1-0.1,0.4-0.1,0.4c-0.2,0.4-0.7,0.6-1,0.7c-1.3,0.6-2.9-0.9-3-2.2c-0.1-0.6,0-1.2,0.1-1.7
	c0-0.2,0-0.5,0.2-0.7s0.5-0.1,0.7-0.3c0.2-0.2,0.3-0.7,0.3-1c-0.1-0.6-0.6-0.7-0.9-1.1c-0.5-0.7-0.1-0.9-0.1-1.7
	c0-0.6-0.3-1.1-0.6-1.6C89.5,64.4,89,63,88.2,62c-0.5-0.6-1.1-0.8-1.9-1.7c-1-1.1-1.6-1.4-3.1-1.9c-1.6-0.5-3.2-0.6-4.7-1.4
	c-0.8-0.5-1.7-0.5-2.5-0.5c-1-0.1-2-0.2-3.1-0.3c-0.9-0.2-1.7-0.3-2.5,0c-0.6,0.2-1.2,0.5-0.7,1.2c1.8,2.3,3,4.9,4.9,7
	c1.2,1.4,1.5,2.5,1.2,4.2c-0.1,0.7-1.4,1.3-1.9,1.7c-0.6,0.5-1,1.2-1.4,1.8c-0.2,0.4-0.6,1-1,1.1c-0.5,0.2-0.9,0.1-1.3-0.2
	c-0.5-0.3-0.9-0.3-1.5-0.3c-0.4,0-0.7-0.2-1.1-0.3c-0.3-0.1-0.7,0-1-0.3c-0.4-0.3-2.1-0.8-2-1.4c0.1-1,1.7-2.4,2.6-2.5
	c1.1-0.2,1.8,1.7,2.9,1.8c1-0.1,1.8-1.1,2.1-2.2c0.2-1.4-1.7-2.8-2.8-3.8c-1-0.9-2-1.8-2.9-2.7c-0.7-0.7-1.7-2.1-2.5-2.5
	c-0.7-0.3-2.5-0.6-2.4-1.7v-0.7l-0.2-0.6c0-0.1-3-0.1-3.4-0.1c-1.5-0.1-3.1-0.3-4.5-0.8c0,0-0.9,2.3-1,2.5c-0.5,1.4-0.8,2.7-0.9,4.2
	c-0.1,0.8,0.2,1.7,0.7,2.3c0.4,0.5,1.1,1,1.6,1.5c0.6,0.5,1.2,1.1,1.8,1.6l1.2,1.1c0.6,0.7,1.4,1.6,2.1,2c1.1,0.7,1.5,2,2.2,2.9
	c0.5,0.6,0.9,1.5,1.3,2.2c0.2,0.3,0.2,0.7,0.3,1c0.1,0.4,0.4,1.6,0.1,2c-0.3,0.4-1.2,0.3-1.5,0.2c-0.5-0.1-1-0.3-1.5-0.5
	c-0.9-0.4-1.1-0.7-1.1-1.7s0.1-1.5,0.6-2.3c0.1-0.2-1.1-0.2-1.6-0.5c-0.6-0.3-0.7-1.1-1.1-1.7c-2.2-3.2-5.6-5-8.4-7.6
	c-0.4-0.4-0.8-0.5-1.3-0.9c-0.8-0.6-1.1-1.6-0.7-2.6c0.5-1.3,0.9-2.6,1.1-3.9c0.2-1.2,0.3-2.8-0.4-4c-0.9-1.3-2.7-1.7-3.8-2.7
	c-0.1-0.1-0.3-0.3-0.4-0.4c0.2,0.2,0.1,1.1,0.1,1.3c0.1,0.4,0.3,0.8,0.3,1.3c0.1,0.8,0.3,1.7,0.4,2.5c0.2,1.3,0.5,2.6,0.8,3.8
	s0.4,2.5,0.9,3.6c0.4,0.9,0.9,1.8,1.4,2.6c0.5,0.7,1.2,1.3,1.3,2.2c0.1,0.5,0.3,1,0.4,1.5c0.2,0.5,0.3,1.1,0.6,1.7
	c0.5,0.9,1.2,1.7,1.8,2.5c1,1.2,1.8,2.5,2.7,3.8c1.3,1.6,2.8,2.9,4.4,4.2c0.8,0.4,1.5,0.7,2.1,1.4c0.4,0.4,1.2,1.1,0.6,1.7
	c-0.6,0.6-1.9,0.5-2.7,0.4c-0.7,0-1.4-0.1-1.9-0.6c-0.3-0.3-0.4-0.8-0.8-1.2c-0.2-0.2-0.5-0.2-0.7-0.4c-0.3-0.3-0.3-0.7-0.5-1
	c-0.4-0.4-0.9-0.6-1.2-1.1c-0.5-0.8-0.7-1.7-1.3-2.5c-0.4-0.6-0.9-1.1-1.3-1.7c-0.5-0.6-0.9-1.2-1.3-1.8c-0.5-0.6-1-1.3-1.6-1.8
	c-0.9-0.7-1.5-1.6-2.2-2.4c-0.2-0.3-0.5-0.7-0.7-0.9c-0.4-0.4-0.9-0.6-1.3-1c-0.3-0.4-0.3-0.9-0.4-1.4c-0.1-0.6-0.4-1.2-0.6-1.8
	c-0.9-3.8-3.2-7.6-5.6-10.7c-1.3-1.8-2.9-3.4-4.4-5c-0.7-0.8-1.3-1.6-1.8-2.5c-0.7-1.2-1.1-2.4-1.1-3.8c0-0.7,0-1.5-0.5-2.1
	c-0.6-0.7-1.1,0.3-1.4,0.8c-8.1,17.8-16,16.5-23,17.2c-0.3,0-0.9,0-0.2-0.5c8.5-5.8,5-8.7,11.7-15c6.3-6,10.2-4.7,12.3-5.2
	c1.2-0.3,2.2-1.6,3-2.4c1.5-1.4,3.1-2.8,5-3.9C39.7,29.4,44.3,29.2,47.9,31.3z"/>
</svg>
